<svg xmlns="http://www.w3.org/2000/svg" version="1.1" xmlns:xlink="http://www.w3.org/1999/xlink" xmlns:svgjs="http://svgjs.com/svgjs" width="24" height="24"><svg xmlns="http://www.w3.org/2000/svg" width="24" height="24" viewBox="0 0 24 24" fill="none" stroke="currentColor" stroke-width="2" stroke-linecap="round" stroke-linejoin="round" class="lucide lucide-earth"><path d="M21.54 15H17a2 2 0 0 0-2 2v4.54"></path><path d="M7 3.34V5a3 3 0 0 0 3 3v0a2 2 0 0 1 2 2v0c0 1.1.9 2 2 2v0a2 2 0 0 0 2-2v0c0-1.1.9-2 2-2h3.17"></path><path d="M11 21.95V18a2 2 0 0 0-2-2v0a2 2 0 0 1-2-2v-1a2 2 0 0 0-2-2H2.05"></path><circle cx="12" cy="12" r="10"></circle></svg><style>@media (prefers-color-scheme: light) { :root { filter: none; } }
@media (prefers-color-scheme: dark) { :root { filter: invert(100%); } }
</style></svg>